# xmcd
# 
# Track frame offsets:
#     150
#     22262
#     51243
#     65100
#     80493
#     94441
# 
# Disc length: 1917
# 
# Revision: 2
# Processed by: cddbd v1.5.2PL0 Copyright (c) Steve Scherf et al.
# Submitted via: fre:ac v1.1beta1pre5
# 
DISCID=56077b06
DTITLE=Madrugada - A Deadend Mind EP
DYEAR=2001
DGENRE=Alternative
TTITLE0=A Deadend Mind
TTITLE1=Vocal (acoustic live version)
TTITLE2=View From A Hilltop
TTITLE3=Fast Blues For Little V.
TTITLE4=4-Track Country Songs Part I
TTITLE5=4-Track Country Songs Part II
EXTD=Rober S. Burås\nSivert Høyem\nFrode Jacobsen\nJon Lauvland Pettersen
EXTT0=
EXTT1=
EXTT2=
EXTT3=
EXTT4=
EXTT5=
PLAYORDER=
